<svg xmlns="http://www.w3.org/2000/svg" viewBox="0 0 64 64" fill="none">
  <rect width="64" height="64" rx="14" fill="#0D1B2A" />
  <g stroke="#F36F21" stroke-width="2.4" stroke-linecap="round">
    <path d="M32 5 V9" />
    <path d="M22 8 L25 11.5" />
    <path d="M42 8 L39 11.5" />
  </g>
  <path d="M28 51 L26.5 42 C21 40 16.5 35 16.5 27 C16.5 18.5 23 12 32 12 C41 12 47.5 18.5 47.5 27 C47.5 35 43 40 37.5 42 L36 51 Z" stroke="#F5F1EA" stroke-width="3.2" stroke-linejoin="round" />
  <g>
    <rect x="23" y="24" width="6.5" height="6.5" rx="1.4" stroke="#F36F21" stroke-width="1.6" />
    <path d="M24.4 27.2 L25.9 28.8 L28.2 25.9" stroke="#F36F21" stroke-width="1.6" stroke-linecap="round" stroke-linejoin="round" />
    <path d="M32.5 27.3 H40" stroke="#F5F1EA" stroke-width="1.9" stroke-linecap="round" />
    <rect x="23" y="33.5" width="6.5" height="6.5" rx="1.4" stroke="#F36F21" stroke-width="1.6" />
    <path d="M24.4 36.7 L25.9 38.3 L28.2 35.4" stroke="#F36F21" stroke-width="1.6" stroke-linecap="round" stroke-linejoin="round" />
    <path d="M32.5 36.8 H40" stroke="#F5F1EA" stroke-width="1.9" stroke-linecap="round" />
  </g>
  <rect x="27" y="51.5" width="10" height="2.6" rx="1.3" fill="#F36F21" />
  <rect x="28.6" y="55.2" width="6.8" height="2.6" rx="1.3" fill="#F36F21" />
  <rect x="29" y="58.8" width="6" height="2.6" rx="1.1" fill="#F5F1EA" />
</svg>
